<svg xmlns="http://www.w3.org/2000/svg" viewBox="0 0 64 64" width="64" height="64">
  <defs>
    <linearGradient id="cortex-bg" x1="0%" y1="0%" x2="100%" y2="100%">
      <stop offset="0%" stop-color="#3b82f6"/>
      <stop offset="100%" stop-color="#1e3a8a"/>
    </linearGradient>
  </defs>
  <rect width="64" height="64" rx="14" fill="url(#cortex-bg)"/>
  <!-- Stylised brain glyph (lucide-style strokes) -->
  <g fill="none" stroke="#ffffff" stroke-width="3" stroke-linecap="round" stroke-linejoin="round">
    <path d="M26 16a6 6 0 0 0-6 6 5 5 0 0 0-3 9 5 5 0 0 0 3 8 5 5 0 0 0 6 6 5 5 0 0 0 6 0V16a6 6 0 0 0-6 0z"/>
    <path d="M38 16a6 6 0 0 1 6 6 5 5 0 0 1 3 9 5 5 0 0 1-3 8 5 5 0 0 1-6 6 5 5 0 0 1-6 0V16a6 6 0 0 1 6 0z"/>
  </g>
</svg>
